<svg width="93" height="24" viewBox="0 0 93 24" fill="none" xmlns="http://www.w3.org/2000/svg">
<path d="M17.2421 14.3706C14.3346 15.8442 11.7106 16.0804 10.2044 16.2071C8.5296 16.348 6.71072 16.4845 4.46996 15.8663C2.21359 15.2433 -0.137819 13.9468 0.00630666 13.2691C0.0826254 12.91 0.818859 12.9715 2.25927 12.4615C3.64066 11.9723 4.56415 11.5338 5.17555 11.0629C5.04533 10.0567 4.94915 8.09722 5.75177 6.09481C7.51731 1.69234 12.4689 -0.301241 13.7789 0.0367094C13.8957 0.0667102 13.9834 0.115241 14.0373 0.182596C14.1735 0.35113 14.0847 0.613195 13.9034 0.982911C13.7913 1.17262 13.7034 1.34616 13.6344 1.49498C13.6151 1.53675 13.5947 1.58175 13.5743 1.6294C13.3255 2.20324 13.0032 3.19003 13.0894 4.39506C13.1062 4.62418 13.136 4.83978 13.1728 5.03772L13.1734 5.04008C13.2761 5.58598 13.4358 6.00805 13.5479 6.26511C13.6915 6.59512 13.8458 6.86601 13.9809 7.07454C13.9962 7.0966 14.0041 7.12337 14.0035 7.14925C14.0033 7.16513 14.0024 7.18337 14.0007 7.2019C13.9976 7.25749 13.978 7.33249 13.9383 7.42338C13.761 7.83545 13.1731 8.57135 11.8 9.23254C11.2243 9.5099 10.3195 9.86491 9.11433 10.0252C8.96453 10.0455 8.80991 10.0626 8.65075 10.0761C8.62294 10.0787 8.59769 10.0893 8.57698 10.1061C8.53584 10.139 8.51428 10.1937 8.53159 10.2482V10.2502C8.53698 10.2655 8.54492 10.2805 8.55428 10.2946C8.56024 10.302 8.5645 10.309 8.57131 10.3167C8.57187 10.3173 8.57272 10.3176 8.57272 10.3176C8.58492 10.3314 8.59826 10.3426 8.61415 10.3543C8.61556 10.3552 8.61642 10.3561 8.6184 10.3576C8.62691 10.364 8.63599 10.3702 8.64649 10.3752C8.66323 10.3855 8.68025 10.3946 8.70039 10.4029C8.7282 10.4146 8.75884 10.4252 8.7926 10.4355C8.83488 10.4473 8.88225 10.4579 8.93276 10.467C8.94808 10.4693 8.96453 10.4714 8.97957 10.4738C8.98326 10.4738 8.98609 10.4743 8.9895 10.4749C9.01844 10.479 9.04879 10.4823 9.07943 10.4852C9.10468 10.487 9.12965 10.4896 9.15575 10.4908C9.17334 10.492 9.19065 10.4932 9.20881 10.4949C9.27406 10.4976 9.34187 10.4988 9.41195 10.4982C9.45762 10.4993 9.50387 10.4982 9.55068 10.4961C9.59012 10.4946 9.63097 10.4926 9.67126 10.4908L9.67296 10.4902C9.80375 10.4832 9.94135 10.4711 10.0818 10.4555L10.1558 10.4467C10.6225 10.3893 11.1173 10.2905 11.5418 10.1664C11.7123 10.1164 11.9032 10.0529 12.1126 9.97021C12.2303 9.92403 12.3535 9.87226 12.4817 9.81256C12.5132 9.79785 12.5456 9.78256 12.5785 9.76697C12.7728 9.67373 12.9779 9.56432 13.1899 9.43519C13.2259 9.41402 13.2611 9.39196 13.2971 9.36931C13.3326 9.34725 13.368 9.32372 13.4046 9.30049C13.513 9.22931 13.6237 9.15401 13.7354 9.07254C13.8725 8.97224 14.0126 8.86371 14.1528 8.74694C14.2081 8.70106 14.2884 8.70606 14.3358 8.76047C14.5284 8.98254 14.805 9.26784 15.1682 9.55726C15.9719 10.1961 17.4376 10.7349 19.2942 11.0232C20.5292 11.2149 20.9015 11.1329 20.9851 11.3652C21.2019 11.9688 19.002 13.4785 17.2413 14.3709L17.2421 14.3706Z" fill="#090C10"/>
<path d="M13.0923 17.6513C13.3048 17.6513 13.4739 17.7289 13.5988 17.8192C13.767 17.941 14.0016 17.8183 13.9977 17.6057C13.9977 17.6033 13.9977 17.6013 13.9977 17.5989C13.9857 17.1722 13.6376 16.6604 13.0923 16.6604C12.547 16.6604 12.1989 17.1719 12.187 17.5989C12.187 17.6013 12.187 17.6033 12.187 17.6057C12.1827 17.8183 12.4177 17.941 12.5859 17.8192C12.7107 17.7289 12.8801 17.6513 13.0923 17.6513Z" fill="#090C10"/>
<path d="M8.16394 17.8077C8.37644 17.8077 8.54554 17.8854 8.67037 17.9757C8.83861 18.0974 9.07324 17.9748 9.06927 17.7621C9.06927 17.7598 9.06927 17.7577 9.06927 17.7554C9.05735 17.3286 8.70924 16.8168 8.16394 16.8168C7.61865 16.8168 7.27053 17.3283 7.25862 17.7554C7.25862 17.7577 7.25862 17.7598 7.25862 17.7621C7.25436 17.9748 7.48927 18.0974 7.65751 17.9757C7.78235 17.8854 7.95173 17.8077 8.16394 17.8077Z" fill="#090C10"/>
<path d="M17.3618 15.7595C17.3315 15.5392 17.1087 15.4083 16.911 15.4945C16.5768 15.6398 16.2891 15.7533 16.0253 15.8477C15.901 15.8921 15.8156 16.0101 15.8076 16.1463C15.7901 16.4486 15.754 16.9383 15.701 17.2286C15.5557 18.0231 15.2816 18.7705 14.9023 19.4461C14.8952 19.459 14.8881 19.4722 14.8813 19.4846C14.4589 19.3011 14.0222 19.1446 13.5748 19.0163C13.1172 18.8849 12.6479 18.7837 12.1687 18.7146C12.0502 18.6975 11.9304 18.6822 11.8101 18.6693C11.4938 18.6337 11.1723 18.6131 10.8486 18.6066C10.8486 18.6066 10.8483 18.6066 10.8475 18.6066C10.7746 18.6046 10.7017 18.604 10.6282 18.604C10.61 18.604 10.5916 18.604 10.5734 18.6046C10.4367 18.6066 10.2979 18.6113 10.1567 18.6187C10.1561 18.6181 10.1555 18.6181 10.1555 18.6187C9.76116 18.6384 9.34779 18.6796 8.91939 18.7484C8.82775 18.7625 8.73582 18.7781 8.64333 18.7957C8.39083 18.8416 8.1335 18.8975 7.87135 18.9637C7.86795 18.9649 7.86426 18.9658 7.86086 18.9663C7.72042 19.0043 7.58111 19.0446 7.44295 19.0878C7.35897 19.114 7.27612 19.141 7.193 19.1693C6.8602 19.2819 6.53365 19.4111 6.21532 19.5555C6.20738 19.5419 6.19915 19.5284 6.19177 19.5143C6.18326 19.5178 6.17475 19.5211 6.16624 19.5246C6.16624 19.5246 5.91515 19.1466 5.69102 18.4496C5.59201 18.184 5.50774 17.9104 5.43965 17.6304C5.39256 17.4369 5.35681 17.2542 5.32929 17.0851C5.30971 16.9645 5.22119 16.8683 5.10572 16.8428C4.89776 16.7966 4.68583 16.7442 4.47021 16.6845C4.37885 16.6592 4.28721 16.633 4.19586 16.6057C4.01173 16.5507 3.82845 16.6936 3.82675 16.8922C3.82675 16.911 3.82675 16.9298 3.82675 16.9486C3.82675 18.2016 4.14167 19.3775 4.69434 20.397C5.09806 21.1432 5.62917 21.8046 6.25731 22.3514C6.80034 22.8244 7.41599 23.2106 8.08442 23.4897C8.87059 23.8191 9.72882 24 10.6288 24C11.5287 24 12.417 23.8129 13.2137 23.4729C13.867 23.1944 14.4688 22.8138 15.0016 22.35C15.0867 22.2764 15.1696 22.2002 15.251 22.122C15.7699 21.6232 16.2142 21.0411 16.5632 20.397C17.1158 19.3778 17.4308 18.2016 17.4308 16.9486C17.4308 16.7322 17.4211 16.3254 17.4027 16.1139C17.3925 15.9948 17.3791 15.8768 17.363 15.7598L17.3618 15.7595ZM10.5249 21.4452C10.4753 21.4452 10.4265 21.4426 10.378 21.4373C10.0298 21.3996 9.72002 21.2314 9.49646 20.9805C9.49646 20.9805 9.49589 20.9805 9.49589 20.9799C9.49589 20.9799 9.49532 20.9799 9.49532 20.9793C9.49532 20.9793 9.49476 20.9793 9.49476 20.9787C9.44397 20.9223 9.39773 20.8611 9.3563 20.7964C9.30524 20.7164 9.39063 20.6187 9.47234 20.6634C9.52426 20.6917 9.5776 20.7173 9.63264 20.7399C9.82131 20.8182 10.0276 20.8608 10.2432 20.8608C10.8083 20.8608 11.3068 20.5667 11.6022 20.119L11.6027 20.1184C11.6583 20.0334 11.7069 19.9431 11.7471 19.8484C11.7843 19.7608 11.9097 19.7825 11.9174 19.8781V19.8817C11.9216 19.9222 11.9231 19.964 11.9231 20.0058C11.9231 20.8002 11.2969 21.4446 10.5249 21.4446V21.4452Z" fill="#090C10"/>
<path d="M68.7537 20.665C67.7181 19.8123 66.3604 19.7154 65.7673 19.6734C65.5461 19.6589 65.2736 19.6637 64.727 19.675C63.7797 19.6944 62.8339 19.6686 61.8866 19.6653C61.7503 19.6653 61.3079 19.6653 60.9809 19.4005C60.9216 19.352 60.7822 19.2357 60.6972 19.0339C60.6507 18.924 60.6283 18.8061 60.6283 18.6786C60.6283 18.3443 60.7421 18.0665 60.9713 17.8452L60.9905 17.8258C61.675 18.1295 62.43 18.2974 63.2251 18.2974C65.7545 18.2974 67.8881 16.5984 68.5661 14.2712C68.5741 14.2502 68.5805 14.2276 68.5853 14.2066C68.6222 14.079 68.6543 13.9482 68.6815 13.8174C68.6991 13.7285 68.7152 13.6397 68.7296 13.5493C68.7376 13.4992 68.744 13.4492 68.7504 13.3991C68.7601 13.3135 68.7681 13.2263 68.7745 13.1375V13.1342C68.7793 13.0825 68.7825 13.0293 68.7857 12.976C68.7873 12.934 68.7889 12.892 68.7905 12.8516C68.7921 12.7967 68.7921 12.7434 68.7921 12.6901C68.7921 12.64 68.7921 12.5916 68.7905 12.5431C68.7905 12.4947 68.7873 12.4478 68.7857 12.3994C68.7825 12.3526 68.7793 12.3041 68.7761 12.2557C68.7729 12.2072 68.7681 12.1604 68.7633 12.1135C68.7585 12.0699 68.7553 12.0263 68.7488 11.9843C68.7488 11.9779 68.7488 11.973 68.7472 11.9682C68.7408 11.923 68.736 11.8777 68.728 11.8341C68.7232 11.7986 68.7168 11.7647 68.7104 11.7292C68.7056 11.6953 68.6992 11.6613 68.6927 11.6274C68.5437 10.8409 68.2311 10.1109 67.7919 9.47945C67.7935 9.47622 67.7935 9.47138 67.7951 9.46815C67.8624 9.25335 67.9906 9.08216 68.183 8.94973C68.4058 8.79792 68.6703 8.7204 68.9749 8.7204H69.8164V5.89897H68.837C68.0628 5.89897 67.4056 6.0847 66.8622 6.45454C66.3941 6.77592 66.0623 7.20067 65.8699 7.72878C65.8699 7.72878 65.8699 7.7304 65.8683 7.72878C65.0765 7.29596 64.1692 7.04886 63.2058 7.04886C60.1185 7.04886 57.6147 9.57151 57.6147 12.682C57.6147 14.1533 58.1741 15.4921 59.0926 16.4951C58.6582 16.7922 58.3072 17.1911 58.0379 17.6918C57.7462 18.2344 57.5987 18.8126 57.5987 19.4231C57.5987 20.3792 57.9353 21.1528 58.6069 21.7406C59.2786 22.3301 60.1682 22.624 61.2775 22.624H65.171C65.2881 22.624 65.9308 22.5514 66.4807 23.0149C66.9151 23.3799 67.0305 23.8514 67.0609 24H70.1931C70.1883 23.6544 70.1306 21.8004 68.7537 20.665ZM60.5 12.682C60.5 11.1784 61.7135 9.95588 63.2058 9.95588C64.6982 9.95588 65.91 11.1784 65.91 12.682C65.91 14.1856 64.6966 15.4065 63.2058 15.4065C61.7151 15.4065 60.5 14.184 60.5 12.682Z" fill="#090C10"/>
<path d="M35.4748 5.90702C38.5573 5.90702 41.0643 8.4329 41.0643 11.5386C41.0643 14.6442 38.5573 17.1701 35.4748 17.1701C32.3923 17.1701 29.8853 14.6442 29.8853 11.5386C29.8853 8.4329 32.3923 5.90702 35.4748 5.90702ZM35.4748 3C30.7942 3 27 6.82273 27 11.5386C27 16.2544 30.7942 20.0771 35.4748 20.0771C40.1555 20.0771 43.9496 16.2544 43.9496 11.5386C43.9496 6.82273 40.1555 3 35.4748 3Z" fill="#090C10"/>
<path d="M81.2069 7.07792V8.67193C80.0816 7.67547 78.6069 7.06984 76.9911 7.06984C73.4614 7.06984 70.5985 9.95264 70.5985 13.5105C70.5985 17.0684 73.4598 19.9512 76.9911 19.9512C78.6069 19.9512 80.0816 19.3455 81.2069 18.3491V19.9576H84.0922V7.07792H81.2069ZM76.9911 17.028C75.066 17.028 73.4999 15.4501 73.4999 13.5105C73.4999 11.5709 75.066 9.99301 76.9911 9.99301C78.9163 9.99301 80.4824 11.5709 80.4824 13.5105C80.4824 15.4501 78.9163 17.028 76.9911 17.028Z" fill="#090C10"/>
<path d="M93 7.07304C91.4163 7.07304 89.9512 7.59792 88.7666 8.48295V7.07789H85.8813V19.9915H88.7666V14.2453C88.7666 11.8939 90.6661 9.98007 93 9.98007V7.07304Z" fill="#090C10"/>
<path d="M45.7864 19.9623L55.8081 19.9429L55.8017 17.0359L49.5293 17.0472L55.8161 10.009L55.8097 10.0042H55.8193L55.8129 7.09067L45.7704 7.11005L45.7816 10.0235L51.9947 10.0122L45.78 17.0553C45.78 17.0553 45.7864 19.9478 45.7864 19.9639V19.9623Z" fill="#090C10"/>
</svg>
