<svg xmlns="http://www.w3.org/2000/svg" width="200" zoomAndPan="magnify"
     viewBox="0 0 150 48" height="64" preserveAspectRatio="xMidYMid meet" version="1.0">
  <g id="Logo_Kube" data-name="Logo Kube" transform="translate(0 0.96) scale(0.72)">
    <g id="Gruppe_16" data-name="Gruppe 16" transform="translate(0 0)">
      <g id="Gruppe_3" data-name="Gruppe 3" transform="translate(0 0)">
        <path id="Pfad_1" data-name="Pfad 1"
              d="M28.727.6,3.1,10.3A4.8,4.8,0,0,0,0,14.785v8.244a3.5,3.5,0,0,0,2.284,3.286L29.53,36.439a7.032,7.032,0,0,0,4.892,0L61.669,26.314a3.5,3.5,0,0,0,2.284-3.286V14.785a4.8,4.8,0,0,0-3.1-4.485L35.226.6A9.171,9.171,0,0,0,28.727.6Z"
              transform="translate(0 0)" fill="#174c76"/>
        <g id="Gruppe_1" data-name="Gruppe 1" transform="translate(33.082 2.414)">
          <path id="Pfad_2" data-name="Pfad 2"
                d="M17.918,11.316,23.9,13.533a.865.865,0,0,0,.486.052c.376-.086.432-.544.432-.809V5.626A2.431,2.431,0,0,0,23.452,3.49L17.47,1.276a.865.865,0,0,0-.486-.052c-.376.086-.432.544-.432.809V9.18A2.426,2.426,0,0,0,17.918,11.316Z"
                transform="translate(-16.553 -1.208)" fill="#3c8dcc"/>
          <path id="Pfad_3" data-name="Pfad 3"
                d="M26.156,10.039a.865.865,0,0,0,.486.052c.376-.086.432-.544.432-.809V8.5l-2.536.939Z"
                transform="translate(-8.581 6.073)" fill="#2f6eb5"/>
          <path id="Pfad_4" data-name="Pfad 4"
                d="M29.5,6.176a2.037,2.037,0,0,0-.925-.791L22.588,3.171a.865.865,0,0,0-.486-.052c-.376.086-.432.544-.432.809v7.149a2.458,2.458,0,0,0,.364,1.223,2.106,2.106,0,0,0,1,.913L27.4,14.828l2.536-.939V7.521A2.489,2.489,0,0,0,29.5,6.176Z"
                transform="translate(-11.443 0.684)" fill="#3c8dcc"/>
          <path id="Pfad_5" data-name="Pfad 5"
                d="M34.613,8.093a2.037,2.037,0,0,0-.925-.791L27.706,5.088a.865.865,0,0,0-.486-.052c-.376.086-.432.544-.432.809v5.4L34.735,8.3C34.7,8.233,34.657,8.161,34.613,8.093Z"
                transform="translate(-6.332 2.598)" fill="#3c8dcc"/>
          <path id="Pfad_6" data-name="Pfad 6"
                d="M26.789,9.607v1.747a2.438,2.438,0,0,0,.364,1.223,2.1,2.1,0,0,0,1,.913L34.136,15.7a.865.865,0,0,0,.486.052c.376-.084.432-.544.432-.807V7.8a2.414,2.414,0,0,0-.318-1.135Z"
                transform="translate(-6.332 4.238)" fill="#2f6eb5"/>
        </g>
        <g id="Gruppe_2" data-name="Gruppe 2" transform="translate(2.15 2.414)">
          <path id="Pfad_7" data-name="Pfad 7"
                d="M11.744,13.583a.881.881,0,0,0,.486-.05l5.982-2.216A2.426,2.426,0,0,0,19.576,9.18V2.031c0-.264-.056-.721-.432-.807a.865.865,0,0,0-.486.052L12.677,3.49a2.431,2.431,0,0,0-1.365,2.136v7.149C11.312,13.041,11.368,13.5,11.744,13.583Z"
                transform="translate(9.145 -1.208)" fill="#51c6e1"/>
          <path id="Pfad_8" data-name="Pfad 8"
                d="M13.095,13.211a1.922,1.922,0,0,0,.8-.628,2.533,2.533,0,0,0,.562-1.509V3.926c0-.264-.056-.721-.432-.807a.865.865,0,0,0-.486.052L7.559,5.385A2.173,2.173,0,0,0,6.476,6.448a2.387,2.387,0,0,0-.282,1.073v6.343l2.568.951Z"
                transform="translate(4.034 0.684)" fill="#51c6e1"/>
          <path id="Pfad_9" data-name="Pfad 9"
                d="M6.194,8.488v.805c0,.266.056.723.432.809a.9.9,0,0,0,.486-.052l1.651-.612Z"
                transform="translate(4.034 6.061)" fill="#00b8ed"/>
          <path id="Pfad_10" data-name="Pfad 10"
                d="M8.753,5.014a.884.884,0,0,0-.486.05L2.286,7.28A2.135,2.135,0,0,0,1.231,8.3l7.954,2.948V5.821C9.185,5.555,9.129,5.1,8.753,5.014Z"
                transform="translate(-0.921 2.576)" fill="#51c6e1"/>
          <path id="Pfad_11" data-name="Pfad 11"
                d="M1.358,6.695a2.387,2.387,0,0,0-.282,1.073v7.149c0,.266.056.723.432.807a.881.881,0,0,0,.486-.05l5.984-2.216a1.938,1.938,0,0,0,.8-.628,2.535,2.535,0,0,0,.56-1.509V9.6L1.386,6.649Z"
                transform="translate(-1.076 4.224)" fill="#00b8ed"/>
        </g>
      </g>
      <g id="Gruppe_6" data-name="Gruppe 6" transform="translate(4.355 13.231)">
        <path id="Pfad_12" data-name="Pfad 12"
              d="M16.462,8.157,3.242,22.416a3.986,3.986,0,0,0-1.063,2.71V35.448A4.8,4.8,0,0,0,5.93,40.133l31.225,6.991a4.8,4.8,0,0,0,4.363-1.211L57.3,30.852a4.8,4.8,0,0,0,1.485-3.471v-9a4.8,4.8,0,0,0-3.837-4.7l-34-6.957A4.8,4.8,0,0,0,16.462,8.157Z"
              transform="translate(-2.179 -6.62)" fill="#174c76"/>
        <g id="Gruppe_4" data-name="Gruppe 4" transform="translate(18.428 2.512)">
          <path id="Pfad_13" data-name="Pfad 13"
                d="M24.191,11.4a.818.818,0,0,1,.54-.865,1.347,1.347,0,0,1,.608,0l7.475,1.533a2.221,2.221,0,0,1,1.285.857c.018.026.04.048.058.072a1.9,1.9,0,0,1,.364,1.063v7.2a.815.815,0,0,1-.54.863,1.317,1.317,0,0,1-.608.006l-6.923-1.421-.236-.048-.316-.064A2.2,2.2,0,0,1,24.191,18.6Z"
                transform="translate(1.372 -5.257)" fill="#3c8dcc"/>
          <path id="Pfad_14" data-name="Pfad 14"
                d="M17.795,10.092a.818.818,0,0,1,.54-.865,1.319,1.319,0,0,1,.608,0l7.476,1.533a2.2,2.2,0,0,1,1.7,1.993v7.2a.815.815,0,0,1-.538.863,1.318,1.318,0,0,1-.608.006L19.5,19.281a2.2,2.2,0,0,1-1.707-1.993Z"
                transform="translate(-5.014 -6.567)" fill="#3c8dcc"/>
          <path id="Pfad_15" data-name="Pfad 15"
                d="M11.4,8.78a.818.818,0,0,1,.54-.865,1.31,1.31,0,0,1,.606,0l7.476,1.533a2.2,2.2,0,0,1,1.7,1.993v7.2a.816.816,0,0,1-.54.863,1.336,1.336,0,0,1-.606.006L13.1,17.969a2.2,2.2,0,0,1-1.7-1.993Z"
                transform="translate(-11.4 -7.877)" fill="#3c8dcc"/>
        </g>
        <g id="Gruppe_5" data-name="Gruppe 5" transform="translate(1.095 3.722)">
          <path id="Pfad_16" data-name="Pfad 16"
                d="M7.753,22.429a.466.466,0,0,0,.284-.18l2.932-3.356a4.363,4.363,0,0,0,.8-2.512v-7.2c0-.266-.032-.711-.252-.7a.484.484,0,0,0-.286.18L8.3,12.021a4.352,4.352,0,0,0-.8,2.51v7.2C7.5,22,7.533,22.443,7.753,22.429Z"
                transform="translate(2.038 -8.483)" fill="#51c6e1"/>
          <path id="Pfad_17" data-name="Pfad 17"
                d="M4.974,16.554v2.7c0,.268.028.717.212.723.068,0,.15-.05.238-.154l1.215-1.449.2-.244L7.7,17.114Z"
                transform="translate(-0.483 -0.424)" fill="#00b8ed"/>
          <path id="Pfad_18" data-name="Pfad 18"
                d="M8.356,21.615a4.566,4.566,0,0,0,.67-2.44v-7.2c0-.266-.028-.715-.212-.721-.068,0-.15.052-.238.156l-2.932,3.5a4.574,4.574,0,0,0-.67,2.442v4.5L7.7,22.4Z"
                transform="translate(-0.483 -5.715)" fill="#51c6e1"/>
          <path id="Pfad_19" data-name="Pfad 19"
                d="M5.977,14.175c-.06-.02-.13.012-.206.094l-2.542,2.76a2.25,2.25,0,0,0-.388.875c-.014.046-.024.094-.036.142l3.356.689V14.95C6.161,14.685,6.137,14.227,5.977,14.175Z"
                transform="translate(-2.649 -2.805)" fill="#51c6e1"/>
          <path id="Pfad_20" data-name="Pfad 20"
                d="M2.849,16.247l-.008.046a5.524,5.524,0,0,0-.114,1.071v7.2c0,.268.024.723.184.777.058.02.13-.014.206-.1l2.542-2.758a4.17,4.17,0,0,0,.58-2.272V16.8l-3.356-.689C2.871,16.155,2.859,16.2,2.849,16.247Z"
                transform="translate(-2.727 -0.868)" fill="#00b8ed"/>
        </g>
      </g>
      <g id="Gruppe_8" data-name="Gruppe 8" transform="translate(22.783 15.743)">
        <path id="Pfad_21" data-name="Pfad 21"
              d="M26.419,10.755,18.942,9.223a1.319,1.319,0,0,0-.608,0,.818.818,0,0,0-.54.865v7.2A2.2,2.2,0,0,0,19.5,19.281l7.477,1.535a1.318,1.318,0,0,0,.608-.006.815.815,0,0,0,.538-.863v-7.2A2.2,2.2,0,0,0,26.419,10.755Z"
              transform="translate(-5.014 -6.567)" fill="#3c8dcc"/>
        <path id="Pfad_22" data-name="Pfad 22"
              d="M20.022,9.443,12.547,7.911a1.318,1.318,0,0,0-.608,0,.818.818,0,0,0-.54.865v7.2a2.2,2.2,0,0,0,1.7,1.993L20.581,19.5a1.336,1.336,0,0,0,.606-.006.816.816,0,0,0,.54-.863v-7.2A2.2,2.2,0,0,0,20.022,9.443Z"
              transform="translate(-11.4 -7.877)" fill="#3c8dcc"/>
        <g id="Gruppe_7" data-name="Gruppe 7" transform="translate(25.563 5.245)">
          <path id="Pfad_23" data-name="Pfad 23"
                d="M32.813,12.067l-7.475-1.533a1.347,1.347,0,0,0-.608,0,.818.818,0,0,0-.54.865v7.2A2.2,2.2,0,0,0,25.9,20.595l.022,0,8.11-7.748A2.181,2.181,0,0,0,32.813,12.067Z"
                transform="translate(-24.191 -10.502)" fill="#3c8dcc"/>
          <path id="Pfad_24" data-name="Pfad 24"
                d="M33.234,11.751c-.02-.026-.046-.048-.068-.074l-8.11,7.748.294.06.236.048,6.923,1.421a1.318,1.318,0,0,0,.608-.006.816.816,0,0,0,.54-.863v-7.2a1.9,1.9,0,0,0-.364-1.063C33.276,11.8,33.252,11.777,33.234,11.751Z"
                transform="translate(-23.327 -9.328)" fill="#2f6eb5"/>
        </g>
      </g>
      <g id="Gruppe_11" data-name="Gruppe 11" transform="translate(0 27.112)">
        <path id="Pfad_25" data-name="Pfad 25"
              d="M28.727,14.161,3.1,23.866A4.8,4.8,0,0,0,0,28.351v8.244A3.5,3.5,0,0,0,2.284,39.88L29.53,50a7.01,7.01,0,0,0,4.892,0L61.669,39.88a3.5,3.5,0,0,0,2.284-3.286V28.351a4.8,4.8,0,0,0-3.1-4.485l-25.629-9.7A9.171,9.171,0,0,0,28.727,14.161Z"
              transform="translate(0 -13.566)" fill="#174c76"/>
        <g id="Gruppe_9" data-name="Gruppe 9" transform="translate(33.082 2.414)">
          <path id="Pfad_26" data-name="Pfad 26"
                d="M17.918,24.882,23.9,27.1a.865.865,0,0,0,.486.052c.376-.086.432-.544.432-.809V19.192a2.431,2.431,0,0,0-1.365-2.136L17.47,14.842a.865.865,0,0,0-.486-.052c-.376.086-.432.544-.432.809v7.149A2.425,2.425,0,0,0,17.918,24.882Z"
                transform="translate(-16.553 -14.774)" fill="#3c8dcc"/>
          <path id="Pfad_27" data-name="Pfad 27"
                d="M26.156,23.6a.865.865,0,0,0,.486.052c.376-.086.432-.544.432-.809v-.781l-2.536.939Z"
                transform="translate(-8.581 -7.493)" fill="#2f6eb5"/>
          <path id="Pfad_28" data-name="Pfad 28"
                d="M29.5,19.742a2.037,2.037,0,0,0-.925-.791l-5.982-2.214a.865.865,0,0,0-.486-.052c-.376.086-.432.544-.432.809v7.149a2.458,2.458,0,0,0,.364,1.223,2.106,2.106,0,0,0,1,.913L27.4,28.394l2.536-.939V21.087A2.489,2.489,0,0,0,29.5,19.742Z"
                transform="translate(-11.443 -12.882)" fill="#3c8dcc"/>
          <path id="Pfad_29" data-name="Pfad 29"
                d="M34.613,21.659a2.02,2.02,0,0,0-.925-.789l-5.982-2.214a.85.85,0,0,0-.486-.054c-.376.086-.432.544-.432.809v5.4l7.946-2.944C34.7,21.8,34.657,21.727,34.613,21.659Z"
                transform="translate(-6.332 -10.968)" fill="#3c8dcc"/>
          <path id="Pfad_30" data-name="Pfad 30"
                d="M26.789,23.173V24.92a2.451,2.451,0,0,0,.364,1.225,2.1,2.1,0,0,0,1,.911l5.984,2.214a.865.865,0,0,0,.486.052c.376-.084.432-.544.432-.807V21.366a2.416,2.416,0,0,0-.318-1.137Z"
                transform="translate(-6.332 -9.328)" fill="#2f6eb5"/>
        </g>
        <g id="Gruppe_10" data-name="Gruppe 10" transform="translate(2.15 2.414)">
          <path id="Pfad_31" data-name="Pfad 31"
                d="M11.744,27.149a.881.881,0,0,0,.486-.05l5.982-2.216a2.425,2.425,0,0,0,1.365-2.134V15.6c0-.264-.056-.721-.432-.807a.865.865,0,0,0-.486.052l-5.982,2.214a2.431,2.431,0,0,0-1.365,2.136v7.149C11.312,26.607,11.368,27.065,11.744,27.149Z"
                transform="translate(9.145 -14.774)" fill="#51c6e1"/>
          <path id="Pfad_32" data-name="Pfad 32"
                d="M13.095,26.777a1.922,1.922,0,0,0,.8-.628,2.528,2.528,0,0,0,.562-1.509V17.492c0-.264-.056-.721-.432-.807a.865.865,0,0,0-.486.052L7.559,18.951a2.173,2.173,0,0,0-1.083,1.063,2.394,2.394,0,0,0-.282,1.073v6.343l2.568.951Z"
                transform="translate(4.034 -12.882)" fill="#51c6e1"/>
          <path id="Pfad_33" data-name="Pfad 33"
                d="M6.194,22.054v.805c0,.266.056.723.432.809a.865.865,0,0,0,.486-.052l1.651-.612Z"
                transform="translate(4.034 -7.505)" fill="#00b8ed"/>
          <path id="Pfad_34" data-name="Pfad 34"
                d="M8.753,18.58a.868.868,0,0,0-.486.052L2.286,20.846a2.143,2.143,0,0,0-1.055,1.017l7.954,2.948V19.387C9.185,19.121,9.129,18.666,8.753,18.58Z"
                transform="translate(-0.921 -10.99)" fill="#51c6e1"/>
          <path id="Pfad_35" data-name="Pfad 35"
                d="M1.358,20.261a2.387,2.387,0,0,0-.282,1.073v7.149c0,.266.056.723.432.807a.881.881,0,0,0,.486-.05l5.984-2.216a1.922,1.922,0,0,0,.8-.628,2.53,2.53,0,0,0,.56-1.509V23.163L1.386,20.215Z"
                transform="translate(-1.076 -9.342)" fill="#00b8ed"/>
        </g>
      </g>
      <g id="Gruppe_12" data-name="Gruppe 12" transform="translate(4.583 42.243)">
        <path id="Pfad_36" data-name="Pfad 36"
              d="M29.7,24.8a4.038,4.038,0,0,1,1.323.2l5.8,2.136c.268.1.422.22.422.328s-.154.23-.422.328l-5.8,2.138a4.529,4.529,0,0,1-2.648,0l-5.8-2.138c-.268-.1-.422-.218-.422-.328s.154-.228.422-.328l5.8-2.136A4.051,4.051,0,0,1,29.7,24.8Z"
              transform="translate(17.538 -17.484)" fill="#2f6eb5"/>
        <path id="Pfad_37" data-name="Pfad 37"
              d="M24.736,22.966a4.038,4.038,0,0,1,1.323.2l5.8,2.138c.268.1.422.218.422.328s-.154.228-.42.326l-5.8,2.138a4.529,4.529,0,0,1-2.648,0l-5.8-2.136c-.268-.1-.422-.22-.422-.33s.154-.228.422-.328l5.8-2.136A4.051,4.051,0,0,1,24.736,22.966Z"
              transform="translate(12.58 -19.311)" fill="#2f6eb5"/>
        <path id="Pfad_38" data-name="Pfad 38"
              d="M24.736,26.623a4.083,4.083,0,0,1,1.323.2l5.8,2.138c.268.1.422.218.422.328s-.154.23-.422.328l-5.8,2.138a4.523,4.523,0,0,1-2.646,0l-5.8-2.138c-.268-.1-.422-.218-.422-.328s.154-.23.422-.328l5.8-2.138A4.114,4.114,0,0,1,24.736,26.623Z"
              transform="translate(12.58 -15.659)" fill="#2f6eb5"/>
        <path id="Pfad_39" data-name="Pfad 39"
              d="M19.771,24.8a4.029,4.029,0,0,1,1.323.2L26.9,27.129c.268.1.42.22.42.328s-.152.23-.42.33l-5.8,2.136a4.529,4.529,0,0,1-2.648,0l-5.8-2.138c-.268-.1-.422-.218-.422-.328s.154-.23.422-.328l5.8-2.138A4.109,4.109,0,0,1,19.771,24.8Z"
              transform="translate(7.622 -17.484)" fill="#2f6eb5"/>
        <path id="Pfad_40" data-name="Pfad 40"
              d="M19.771,28.452a4.051,4.051,0,0,1,1.325.2l5.8,2.138c.268.1.422.218.422.328s-.154.228-.422.328l-5.8,2.138a4.529,4.529,0,0,1-2.648,0l-5.8-2.138c-.268-.1-.422-.218-.422-.328s.154-.23.422-.328l5.8-2.138A4.038,4.038,0,0,1,19.771,28.452Z"
              transform="translate(7.622 -13.833)" fill="#2f6eb5"/>
        <path id="Pfad_41" data-name="Pfad 41"
              d="M19.771,21.137a4.051,4.051,0,0,1,1.325.2l5.8,2.138c.268.1.422.218.422.328s-.154.23-.422.328l-5.8,2.138a4.109,4.109,0,0,1-1.325.2,4.029,4.029,0,0,1-1.323-.2l-5.8-2.136c-.268-.1-.422-.218-.422-.328s.154-.23.422-.328l5.8-2.138A4.029,4.029,0,0,1,19.771,21.137Z"
              transform="translate(7.622 -21.137)" fill="#2f6eb5"/>
        <path id="Pfad_42" data-name="Pfad 42"
              d="M14.806,22.966a4.051,4.051,0,0,1,1.325.2l5.8,2.136c.268.1.422.22.422.328s-.154.23-.422.33l-5.8,2.136a4.529,4.529,0,0,1-2.648,0l-5.8-2.136c-.268-.1-.422-.22-.422-.33s.154-.228.422-.328l5.8-2.136A4.038,4.038,0,0,1,14.806,22.966Z"
              transform="translate(2.665 -19.311)" fill="#2f6eb5"/>
        <path id="Pfad_43" data-name="Pfad 43"
              d="M9.843,24.8a4.038,4.038,0,0,1,1.323.2l5.8,2.136c.268.1.422.218.422.328s-.154.23-.422.328l-5.8,2.138a4.051,4.051,0,0,1-1.325.2,4.038,4.038,0,0,1-1.323-.2l-5.8-2.136c-.268-.1-.422-.22-.422-.33s.154-.228.422-.328l5.8-2.138A4.109,4.109,0,0,1,9.843,24.8Z"
              transform="translate(-2.293 -17.484)" fill="#2f6eb5"/>
        <path id="Pfad_44" data-name="Pfad 44"
              d="M14.806,26.623a4.1,4.1,0,0,1,1.325.2l5.8,2.138c.268.1.422.218.422.328s-.154.23-.422.328l-5.8,2.138a4.529,4.529,0,0,1-2.648,0L7.678,29.615c-.268-.1-.42-.218-.42-.328s.152-.23.42-.328l5.806-2.138A4.092,4.092,0,0,1,14.806,26.623Z"
              transform="translate(2.665 -15.659)" fill="#2f6eb5"/>
      </g>
    </g>
  </g>
  <g fill="#4d92cf" fill-opacity="1">
    <g transform="translate(51.34628, 32.117279)">
      <g>
        <path
          d="M 0.859375 -7.203125 C 0.859375 -8.648438 1.144531 -9.929688 1.71875 -11.046875 C 2.289062 -12.171875 3.078125 -13.035156 4.078125 -13.640625 C 5.078125 -14.242188 6.191406 -14.546875 7.421875 -14.546875 C 8.347656 -14.546875 9.234375 -14.34375 10.078125 -13.9375 C 10.921875 -13.53125 11.59375 -12.992188 12.09375 -12.328125 L 12.09375 -19.125 L 15.765625 -19.125 L 15.765625 0 L 12.09375 0 L 12.09375 -2.125 C 11.644531 -1.414062 11.015625 -0.84375 10.203125 -0.40625 C 9.398438 0.0195312 8.460938 0.234375 7.390625 0.234375 C 6.179688 0.234375 5.078125 -0.0703125 4.078125 -0.6875 C 3.078125 -1.3125 2.289062 -2.1875 1.71875 -3.3125 C 1.144531 -4.445312 0.859375 -5.742188 0.859375 -7.203125 Z M 12.125 -7.15625 C 12.125 -8.039062 11.953125 -8.796875 11.609375 -9.421875 C 11.265625 -10.046875 10.796875 -10.523438 10.203125 -10.859375 C 9.617188 -11.203125 8.992188 -11.375 8.328125 -11.375 C 7.648438 -11.375 7.023438 -11.207031 6.453125 -10.875 C 5.890625 -10.550781 5.429688 -10.070312 5.078125 -9.4375 C 4.722656 -8.8125 4.546875 -8.066406 4.546875 -7.203125 C 4.546875 -6.347656 4.722656 -5.597656 5.078125 -4.953125 C 5.429688 -4.304688 5.894531 -3.8125 6.46875 -3.46875 C 7.050781 -3.125 7.671875 -2.953125 8.328125 -2.953125 C 8.992188 -2.953125 9.617188 -3.117188 10.203125 -3.453125 C 10.796875 -3.785156 11.265625 -4.265625 11.609375 -4.890625 C 11.953125 -5.523438 12.125 -6.28125 12.125 -7.15625 Z M 12.125 -7.15625 "/>
      </g>
    </g>
  </g>
  <g fill="#4d92cf" fill-opacity="1">
    <g transform="translate(68.858397, 32.117279)">
      <g>
        <path
          d="M 3.625 -16.015625 C 2.976562 -16.015625 2.441406 -16.21875 2.015625 -16.625 C 1.597656 -17.03125 1.390625 -17.535156 1.390625 -18.140625 C 1.390625 -18.742188 1.597656 -19.25 2.015625 -19.65625 C 2.441406 -20.0625 2.976562 -20.265625 3.625 -20.265625 C 4.257812 -20.265625 4.785156 -20.0625 5.203125 -19.65625 C 5.628906 -19.25 5.84375 -18.742188 5.84375 -18.140625 C 5.84375 -17.535156 5.628906 -17.03125 5.203125 -16.625 C 4.785156 -16.21875 4.257812 -16.015625 3.625 -16.015625 Z M 5.40625 -14.3125 L 5.40625 0 L 1.78125 0 L 1.78125 -14.3125 Z M 5.40625 -14.3125 "/>
      </g>
    </g>
  </g>
  <g fill="#4d92cf" fill-opacity="1">
    <g transform="translate(76.038882, 32.117279)">
      <g>
        <path
          d="M 7.265625 0.234375 C 6.085938 0.234375 5.035156 0.0234375 4.109375 -0.390625 C 3.179688 -0.816406 2.441406 -1.390625 1.890625 -2.109375 C 1.347656 -2.835938 1.054688 -3.640625 1.015625 -4.515625 L 4.65625 -4.515625 C 4.71875 -3.972656 4.984375 -3.519531 5.453125 -3.15625 C 5.929688 -2.789062 6.523438 -2.609375 7.234375 -2.609375 C 7.921875 -2.609375 8.457031 -2.742188 8.84375 -3.015625 C 9.238281 -3.296875 9.4375 -3.648438 9.4375 -4.078125 C 9.4375 -4.546875 9.195312 -4.894531 8.71875 -5.125 C 8.25 -5.363281 7.5 -5.617188 6.46875 -5.890625 C 5.394531 -6.148438 4.515625 -6.414062 3.828125 -6.6875 C 3.148438 -6.96875 2.566406 -7.390625 2.078125 -7.953125 C 1.585938 -8.523438 1.34375 -9.296875 1.34375 -10.265625 C 1.34375 -11.054688 1.570312 -11.773438 2.03125 -12.421875 C 2.488281 -13.078125 3.140625 -13.59375 3.984375 -13.96875 C 4.835938 -14.351562 5.84375 -14.546875 7 -14.546875 C 8.707031 -14.546875 10.066406 -14.117188 11.078125 -13.265625 C 12.097656 -12.410156 12.660156 -11.265625 12.765625 -9.828125 L 9.296875 -9.828125 C 9.242188 -10.390625 9.003906 -10.835938 8.578125 -11.171875 C 8.160156 -11.515625 7.601562 -11.6875 6.90625 -11.6875 C 6.25 -11.6875 5.742188 -11.5625 5.390625 -11.3125 C 5.035156 -11.070312 4.859375 -10.738281 4.859375 -10.3125 C 4.859375 -9.832031 5.097656 -9.46875 5.578125 -9.21875 C 6.066406 -8.96875 6.816406 -8.710938 7.828125 -8.453125 C 8.859375 -8.191406 9.707031 -7.921875 10.375 -7.640625 C 11.050781 -7.367188 11.632812 -6.941406 12.125 -6.359375 C 12.625 -5.785156 12.878906 -5.023438 12.890625 -4.078125 C 12.890625 -3.253906 12.660156 -2.515625 12.203125 -1.859375 C 11.753906 -1.203125 11.101562 -0.6875 10.25 -0.3125 C 9.394531 0.0507812 8.398438 0.234375 7.265625 0.234375 Z M 7.265625 0.234375 "/>
      </g>
    </g>
  </g>
  <g fill="#4d92cf" fill-opacity="1">
    <g transform="translate(90.115731, 32.117279)">
      <g>
        <path
          d="M 6 -11.34375 L 6 -4.421875 C 6 -3.941406 6.113281 -3.59375 6.34375 -3.375 C 6.570312 -3.15625 6.960938 -3.046875 7.515625 -3.046875 L 9.203125 -3.046875 L 9.203125 0 L 6.921875 0 C 3.878906 0 2.359375 -1.476562 2.359375 -4.4375 L 2.359375 -11.34375 L 0.640625 -11.34375 L 0.640625 -14.3125 L 2.359375 -14.3125 L 2.359375 -17.859375 L 6 -17.859375 L 6 -14.3125 L 9.203125 -14.3125 L 9.203125 -11.34375 Z M 6 -11.34375 "/>
      </g>
    </g>
  </g>
  <g fill="#4d92cf" fill-opacity="1">
    <g transform="translate(100.137414, 32.117279)">
      <g>
        <path
          d="M 5.40625 -12.09375 C 5.863281 -12.851562 6.46875 -13.445312 7.21875 -13.875 C 7.96875 -14.3125 8.828125 -14.53125 9.796875 -14.53125 L 9.796875 -10.71875 L 8.84375 -10.71875 C 7.707031 -10.71875 6.847656 -10.453125 6.265625 -9.921875 C 5.691406 -9.390625 5.40625 -8.460938 5.40625 -7.140625 L 5.40625 0 L 1.78125 0 L 1.78125 -14.3125 L 5.40625 -14.3125 Z M 5.40625 -12.09375 "/>
      </g>
    </g>
  </g>
  <g fill="#0f498f" fill-opacity="1">
    <g transform="translate(110.580972, 32.117279)">
      <g>
        <path
          d="M 3.390625 0.1875 C 2.734375 0.1875 2.191406 -0.015625 1.765625 -0.421875 C 1.347656 -0.828125 1.140625 -1.332031 1.140625 -1.9375 C 1.140625 -2.539062 1.347656 -3.046875 1.765625 -3.453125 C 2.191406 -3.859375 2.734375 -4.0625 3.390625 -4.0625 C 4.023438 -4.0625 4.546875 -3.859375 4.953125 -3.453125 C 5.367188 -3.046875 5.578125 -2.539062 5.578125 -1.9375 C 5.578125 -1.332031 5.367188 -0.828125 4.953125 -0.421875 C 4.546875 -0.015625 4.023438 0.1875 3.390625 0.1875 Z M 3.390625 0.1875 "/>
      </g>
    </g>
  </g>
  <g fill="#0f498f" fill-opacity="1">
    <g transform="translate(117.296533, 32.117279)">
      <g>
        <path
          d="M 7.265625 0.234375 C 6.085938 0.234375 5.035156 0.0234375 4.109375 -0.390625 C 3.179688 -0.816406 2.441406 -1.390625 1.890625 -2.109375 C 1.347656 -2.835938 1.054688 -3.640625 1.015625 -4.515625 L 4.65625 -4.515625 C 4.71875 -3.972656 4.984375 -3.519531 5.453125 -3.15625 C 5.929688 -2.789062 6.523438 -2.609375 7.234375 -2.609375 C 7.921875 -2.609375 8.457031 -2.742188 8.84375 -3.015625 C 9.238281 -3.296875 9.4375 -3.648438 9.4375 -4.078125 C 9.4375 -4.546875 9.195312 -4.894531 8.71875 -5.125 C 8.25 -5.363281 7.5 -5.617188 6.46875 -5.890625 C 5.394531 -6.148438 4.515625 -6.414062 3.828125 -6.6875 C 3.148438 -6.96875 2.566406 -7.390625 2.078125 -7.953125 C 1.585938 -8.523438 1.34375 -9.296875 1.34375 -10.265625 C 1.34375 -11.054688 1.570312 -11.773438 2.03125 -12.421875 C 2.488281 -13.078125 3.140625 -13.59375 3.984375 -13.96875 C 4.835938 -14.351562 5.84375 -14.546875 7 -14.546875 C 8.707031 -14.546875 10.066406 -14.117188 11.078125 -13.265625 C 12.097656 -12.410156 12.660156 -11.265625 12.765625 -9.828125 L 9.296875 -9.828125 C 9.242188 -10.390625 9.003906 -10.835938 8.578125 -11.171875 C 8.160156 -11.515625 7.601562 -11.6875 6.90625 -11.6875 C 6.25 -11.6875 5.742188 -11.5625 5.390625 -11.3125 C 5.035156 -11.070312 4.859375 -10.738281 4.859375 -10.3125 C 4.859375 -9.832031 5.097656 -9.46875 5.578125 -9.21875 C 6.066406 -8.96875 6.816406 -8.710938 7.828125 -8.453125 C 8.859375 -8.191406 9.707031 -7.921875 10.375 -7.640625 C 11.050781 -7.367188 11.632812 -6.941406 12.125 -6.359375 C 12.625 -5.785156 12.878906 -5.023438 12.890625 -4.078125 C 12.890625 -3.253906 12.660156 -2.515625 12.203125 -1.859375 C 11.753906 -1.203125 11.101562 -0.6875 10.25 -0.3125 C 9.394531 0.0507812 8.398438 0.234375 7.265625 0.234375 Z M 7.265625 0.234375 "/>
      </g>
    </g>
  </g>
  <g fill="#0f498f" fill-opacity="1">
    <g transform="translate(131.373382, 32.117279)">
      <g>
        <path
          d="M 9.84375 -14.53125 C 10.925781 -14.53125 11.890625 -14.289062 12.734375 -13.8125 C 13.578125 -13.34375 14.234375 -12.644531 14.703125 -11.71875 C 15.179688 -10.800781 15.421875 -9.695312 15.421875 -8.40625 L 15.421875 0 L 11.8125 0 L 11.8125 -7.90625 C 11.8125 -9.039062 11.523438 -9.914062 10.953125 -10.53125 C 10.390625 -11.144531 9.613281 -11.453125 8.625 -11.453125 C 7.632812 -11.453125 6.847656 -11.144531 6.265625 -10.53125 C 5.691406 -9.914062 5.40625 -9.039062 5.40625 -7.90625 L 5.40625 0 L 1.78125 0 L 1.78125 -19.125 L 5.40625 -19.125 L 5.40625 -12.53125 C 5.863281 -13.15625 6.476562 -13.644531 7.25 -14 C 8.03125 -14.351562 8.894531 -14.53125 9.84375 -14.53125 Z M 9.84375 -14.53125 "/>
      </g>
    </g>
  </g>
</svg>
