<svg xmlns="http://www.w3.org/2000/svg" viewBox="0 0 200 96" fill="none"><rect width="200" height="96" fill="rgb(249, 248, 247)"/><g transform="translate(16.000 34.000) scale(2.15385)"><g><path d="M 78 6.496 L 70.415 6.496 C 70.415 8.709 71.513 10.539 74.095 10.539 C 75.113 10.539 76.515 10.278 77.593 9.272 L 77.735 9.352 C 77.532 9.956 77.431 10.458 77.227 10.7 C 76.658 11.304 75.275 11.645 73.872 11.645 C 70.293 11.645 68.666 9.453 68.666 6.255 C 68.666 3.278 70.374 0.964 73.486 0.964 C 76.719 0.964 78 3.478 78 6.496 Z M 73.506 2.011 C 71.716 2.011 70.557 3.459 70.395 5.531 L 76.394 5.531 C 76.312 3.62 75.377 2.011 73.506 2.011 Z M 61.722 3.378 L 64.02 8.708 L 66.318 3.318 C 66.542 2.775 66.684 2.272 66.684 1.991 C 66.684 1.749 66.663 1.508 66.521 1.407 L 66.562 1.266 C 66.908 1.347 67.192 1.367 67.517 1.367 C 67.822 1.367 68.229 1.347 68.534 1.267 L 68.575 1.407 C 68.107 2.111 67.924 2.674 67.436 3.619 L 63.939 11.324 L 63.614 11.324 L 60.095 3.7 C 59.465 2.393 59.363 2.151 58.957 1.407 L 58.997 1.266 C 59.383 1.367 59.79 1.387 60.197 1.387 C 60.604 1.387 61.01 1.367 61.336 1.267 L 61.376 1.407 C 61.255 1.548 61.234 1.709 61.234 1.971 C 61.234 2.252 61.437 2.755 61.722 3.379 Z M 56.748 11.203 C 56.809 10.66 56.829 10.037 56.85 9.473 C 56.199 10.62 55.06 11.706 52.864 11.706 C 50.81 11.706 49.752 10.64 49.752 9.01 C 49.752 6.798 51.664 6.194 53.494 5.852 C 55.019 5.571 56.829 5.349 56.829 4.827 C 56.829 3.197 55.914 2.252 54.023 2.252 C 52.965 2.252 51.542 2.513 50.871 3.278 L 50.688 3.237 L 50.505 2.071 C 50.464 1.85 50.546 1.769 50.79 1.668 C 51.359 1.387 52.762 1.026 54.084 1.026 C 56.87 1.026 58.293 2.554 58.313 5.048 C 58.313 9.996 58.334 9.915 58.659 11.183 L 58.618 11.324 C 58.318 11.256 58.011 11.222 57.704 11.223 C 57.419 11.223 57.093 11.243 56.829 11.324 Z M 53.332 10.6 C 54.918 10.6 56.463 9.674 56.809 7.18 C 56.809 6.818 56.829 6.436 56.829 6.034 C 56.463 6.255 55.955 6.376 53.718 6.818 C 52.03 7.16 51.318 7.844 51.318 8.95 C 51.318 9.956 51.928 10.6 53.332 10.6 Z M 48.452 6.496 L 40.867 6.496 C 40.867 8.709 41.966 10.539 44.548 10.539 C 45.565 10.539 46.968 10.278 48.045 9.272 L 48.188 9.352 C 47.985 9.956 47.883 10.458 47.68 10.7 C 47.111 11.304 45.727 11.645 44.325 11.645 C 40.746 11.645 39.118 9.453 39.118 6.255 C 39.118 3.278 40.827 0.964 43.938 0.964 C 47.172 0.964 48.452 3.478 48.452 6.496 Z M 43.959 2.011 C 42.169 2.011 41.01 3.46 40.848 5.531 L 46.847 5.531 C 46.766 3.62 45.83 2.011 43.959 2.011 Z M 33.364 4.525 L 35.011 8.689 L 37.025 3.298 C 37.227 2.734 37.329 2.252 37.329 1.971 C 37.329 1.749 37.289 1.508 37.186 1.407 L 37.227 1.266 C 37.512 1.347 37.818 1.387 38.143 1.387 C 38.448 1.387 38.753 1.347 39.079 1.267 L 39.119 1.407 C 38.733 2.111 38.55 2.634 38.001 3.882 L 34.91 11.324 L 34.625 11.324 L 31.839 4.948 C 31.595 4.424 31.412 3.982 31.27 3.64 L 30.68 5.008 L 28.036 11.324 L 27.752 11.324 L 24.559 3.941 C 23.868 2.353 23.807 2.151 23.4 1.407 L 23.441 1.266 C 23.805 1.366 24.181 1.414 24.559 1.407 C 24.966 1.407 25.332 1.367 25.677 1.266 L 25.718 1.407 C 25.596 1.528 25.576 1.689 25.576 1.91 C 25.576 2.192 25.8 2.715 26.064 3.358 L 28.138 8.688 L 29.684 4.586 C 30.375 2.734 30.415 2.272 30.415 1.93 C 30.415 1.709 30.375 1.528 30.293 1.407 L 30.334 1.266 C 30.659 1.347 31.026 1.427 31.433 1.427 C 31.839 1.427 32.185 1.367 32.531 1.266 L 32.571 1.407 C 32.49 1.508 32.449 1.649 32.449 1.85 C 32.449 2.111 32.673 2.715 33.364 4.524 Z" fill="rgb(54, 37, 31)"/><path d="M 3.571 0.001 C 3.687 3.222 4.412 6.169 5.558 8.526 C 4.621 9.383 3.555 9.993 2.409 10.29 C 0.942 7.658 0.034 4.146 0 0.279 L 0 0.001 Z M 8.51 3.942 C 7.996 5.355 7.2 6.646 6.338 7.666 C 5.359 5.504 4.708 2.85 4.548 0 L 7.94 0 C 8.02 1.378 8.215 2.699 8.51 3.942 Z" fill="rgb(54, 37, 31)"/><path d="M 13.603 0.001 C 13.396 3.697 12.385 7.003 10.866 9.429 C 10.356 10.246 9.787 10.963 9.171 11.561 C 8.904 11.821 8.629 12.059 8.345 12.272 C 8.334 12.279 8.325 12.288 8.315 12.295 C 6.707 13.496 4.399 13.122 3.251 11.485 C 3.141 11.326 3.032 11.163 2.925 10.996 C 4.045 10.662 5.091 10.059 6.02 9.237 C 6.319 8.974 6.607 8.688 6.88 8.38 C 7.691 7.473 8.386 6.384 8.934 5.159 C 9.621 3.623 10.075 1.871 10.229 0 L 13.6 0 L 13.602 0.001 Z" fill="rgb(54, 37, 31)"/><path d="M 14.873 11.38 C 13.598 12.964 11.433 13.487 9.842 12.272 C 9.81 12.248 9.781 12.225 9.75 12.201 C 10.331 11.668 10.874 11.036 11.376 10.317 C 13.152 7.756 14.354 4.101 14.578 0 L 18.149 0 C 18.08 4.292 16.792 9 14.873 11.382 Z" fill="rgb(54, 37, 31)"/></g></g></svg>
